<?xml version="1.0" encoding="iso-8859-1"?>
<!-- Generator: Adobe Illustrator 19.0.0, SVG Export Plug-In . SVG Version: 6.00 Build 0)  -->
<svg version="1.1" id="Layer_1" xmlns="http://www.w3.org/2000/svg" xmlns:xlink="http://www.w3.org/1999/xlink" x="0px" y="0px"
	 viewBox="0 0 512 512" style="enable-background:new 0 0 512 512;" xml:space="preserve">
<rect x="226.986" y="400.903" style="fill:#B27214;" width="58.029" height="72.23"/>
<g>
	<polygon style="fill:#F95428;" points="179.199,238.748 179.199,281.417 32.146,281.417 32.146,264.611 	"/>
	<polygon style="fill:#F95428;" points="479.86,264.611 479.86,281.417 332.795,281.417 332.795,238.748 	"/>
	<polygon style="fill:#F95428;" points="291.845,59.915 256.003,77.905 256.003,38.866 	"/>
	<polygon style="fill:#F95428;" points="318.094,144.058 309.094,144.058 202.9,144.058 193.9,144.058 256.003,97.407 	"/>
</g>
<g>
	<polygon style="fill:#F7B239;" points="309.094,144.058 309.094,212.009 274.777,212.009 274.777,168.567 237.229,168.567 
		237.229,212.009 202.9,212.009 202.9,144.058 	"/>
	<path style="fill:#F7B239;" d="M479.86,281.417v191.724H285.018v-0.011h47.778V281.417H479.86L479.86,281.417z M453.405,445.253
		v-52.909h-32.428v52.909H453.405z M453.405,363.329V310.42h-32.428v52.909H453.405z M391.962,445.253v-52.909h-32.428v52.909
		H391.962z M391.962,363.329V310.42h-32.428v52.909H391.962z"/>
	<path style="fill:#F7B239;" d="M332.795,281.417V473.13h-47.778v-72.229h-58.029v72.229h-47.789V281.417v-42.669v-26.739H202.9
		h34.328h37.548h34.317h23.701v26.739L332.795,281.417L332.795,281.417z M302.927,371.294v-52.909H270.51v52.909H302.927z
		 M302.927,292.784v-52.898H270.51v52.898H302.927z M241.495,371.294v-52.909h-32.428v52.909H241.495z M241.495,292.784v-52.898
		h-32.428v52.898H241.495z"/>
	<path style="fill:#F7B239;" d="M226.988,473.13v0.011H32.146V281.417h147.053V473.13H226.988z M153.598,445.253v-52.909H121.17
		v52.909H153.598z M153.598,363.329V310.42H121.17v52.909H153.598z M92.155,445.253v-52.909H59.738v52.909H92.155z M92.155,363.329
		V310.42H59.738v52.909H92.155z"/>
</g>
<g>
	<rect x="359.532" y="392.346" style="fill:#2BA5F7;" width="32.428" height="52.909"/>
	<rect x="420.975" y="392.346" style="fill:#2BA5F7;" width="32.428" height="52.909"/>
	<rect x="420.975" y="310.423" style="fill:#2BA5F7;" width="32.428" height="52.909"/>
	<rect x="359.532" y="310.423" style="fill:#2BA5F7;" width="32.428" height="52.909"/>
	<rect x="237.226" y="168.569" style="fill:#2BA5F7;" width="37.548" height="43.442"/>
	<rect x="270.508" y="318.387" style="fill:#2BA5F7;" width="32.417" height="52.909"/>
	<rect x="270.508" y="239.888" style="fill:#2BA5F7;" width="32.417" height="52.898"/>
	<rect x="209.065" y="318.387" style="fill:#2BA5F7;" width="32.428" height="52.909"/>
	<rect x="209.065" y="239.888" style="fill:#2BA5F7;" width="32.428" height="52.898"/>
	<rect x="121.168" y="392.346" style="fill:#2BA5F7;" width="32.428" height="52.909"/>
	<rect x="121.168" y="310.423" style="fill:#2BA5F7;" width="32.428" height="52.909"/>
	<rect x="59.736" y="392.346" style="fill:#2BA5F7;" width="32.417" height="52.909"/>
	<rect x="59.736" y="310.423" style="fill:#2BA5F7;" width="32.417" height="52.909"/>
</g>
<g>
	<path style="fill:#333333;" d="M209.066,301.322h32.426c4.714,0,8.534-3.821,8.534-8.534v-52.907c0-4.713-3.82-8.534-8.534-8.534
		h-32.426c-4.714,0-8.534,3.821-8.534,8.534v52.907C200.532,297.501,204.353,301.322,209.066,301.322z M217.6,248.415h15.358v35.839
		H217.6V248.415z"/>
	<path style="fill:#333333;" d="M270.506,301.322h32.427c4.714,0,8.534-3.821,8.534-8.534v-52.907c0-4.713-3.82-8.534-8.534-8.534
		h-32.427c-4.714,0-8.534,3.821-8.534,8.534v52.907C261.972,297.501,265.793,301.322,270.506,301.322z M279.039,248.415h15.36
		v35.839h-15.36V248.415z"/>
	<path style="fill:#333333;" d="M241.492,379.828c4.714,0,8.534-3.821,8.534-8.534v-52.907c0-4.713-3.82-8.534-8.534-8.534h-32.426
		c-4.714,0-8.534,3.821-8.534,8.534v52.907c0,4.713,3.82,8.534,8.534,8.534H241.492z M217.6,326.922h15.358v35.839H217.6V326.922z"
		/>
	<path style="fill:#333333;" d="M270.506,379.828h32.427c4.714,0,8.534-3.821,8.534-8.534v-52.907c0-4.713-3.82-8.534-8.534-8.534
		h-32.427c-4.714,0-8.534,3.821-8.534,8.534v52.907C261.972,376.007,265.793,379.828,270.506,379.828z M279.039,326.922h15.36
		v35.839h-15.36V326.922z"/>
	<path style="fill:#333333;" d="M92.16,301.89H59.734c-4.714,0-8.534,3.821-8.534,8.534v52.907c0,4.713,3.82,8.534,8.534,8.534
		H92.16c4.714,0,8.534-3.821,8.534-8.534v-52.907C100.693,305.711,96.874,301.89,92.16,301.89z M83.626,354.797H68.268v-35.839
		h15.358V354.797z"/>
	<path style="fill:#333333;" d="M153.599,301.89h-32.426c-4.714,0-8.534,3.821-8.534,8.534v52.907c0,4.713,3.82,8.534,8.534,8.534
		h32.426c4.714,0,8.534-3.821,8.534-8.534v-52.907C162.133,305.711,158.313,301.89,153.599,301.89z M145.065,354.797h-15.358
		v-35.839h15.358V354.797z"/>
	<path style="fill:#333333;" d="M92.16,383.81H59.734c-4.714,0-8.534,3.821-8.534,8.534v52.907c0,4.713,3.82,8.534,8.534,8.534
		H92.16c4.714,0,8.534-3.821,8.534-8.534v-52.907C100.693,387.631,96.874,383.81,92.16,383.81z M83.626,436.716H68.268v-35.839
		h15.358V436.716z"/>
	<path style="fill:#333333;" d="M153.599,383.81h-32.426c-4.714,0-8.534,3.821-8.534,8.534v52.907c0,4.713,3.82,8.534,8.534,8.534
		h32.426c4.714,0,8.534-3.821,8.534-8.534v-52.907C162.133,387.631,158.313,383.81,153.599,383.81z M145.065,436.716h-15.358
		v-35.839h15.358V436.716z"/>
	<path style="fill:#333333;" d="M391.963,301.89h-32.427c-4.714,0-8.534,3.821-8.534,8.534v52.907c0,4.713,3.82,8.534,8.534,8.534
		h32.427c4.714,0,8.534-3.821,8.534-8.534v-52.907C400.497,305.711,396.677,301.89,391.963,301.89z M383.43,354.797h-15.36v-35.839
		h15.36V354.797z"/>
	<path style="fill:#333333;" d="M453.403,301.89h-32.427c-4.714,0-8.534,3.821-8.534,8.534v52.907c0,4.713,3.82,8.534,8.534,8.534
		h32.427c4.714,0,8.534-3.821,8.534-8.534v-52.907C461.937,305.711,458.117,301.89,453.403,301.89z M444.869,354.797h-15.36v-35.839
		h15.36V354.797z"/>
	<path style="fill:#333333;" d="M391.963,383.81h-32.427c-4.714,0-8.534,3.821-8.534,8.534v52.907c0,4.713,3.82,8.534,8.534,8.534
		h32.427c4.714,0,8.534-3.821,8.534-8.534v-52.907C400.497,387.631,396.677,383.81,391.963,383.81z M383.43,436.716h-15.36v-35.839
		h15.36V436.716z"/>
	<path style="fill:#333333;" d="M453.403,383.81h-32.427c-4.714,0-8.534,3.821-8.534,8.534v52.907c0,4.713,3.82,8.534,8.534,8.534
		h32.427c4.714,0,8.534-3.821,8.534-8.534v-52.907C461.937,387.631,458.117,383.81,453.403,383.81z M444.869,436.716h-15.36v-35.839
		h15.36V436.716z"/>
	<path style="fill:#333333;" d="M503.466,464.603h-15.073V264.607c0-4.143-2.975-7.687-7.056-8.405l-140.004-24.62v-19.566
		c0-4.713-3.82-8.534-8.534-8.534h-15.166v-50.885h0.465h10.531c4.714,0,8.534-3.821,8.534-8.534s-3.82-8.534-8.534-8.534h-7.683
		l-56.409-42.383v-9.98l31.136-15.627c2.794-1.403,4.598-4.221,4.702-7.346c0.102-3.126-1.511-6.057-4.208-7.639l-35.842-21.05
		c-2.636-1.549-5.903-1.567-8.56-0.048c-2.656,1.52-4.294,4.347-4.294,7.406v54.28l-56.416,42.388h-7.684
		c-4.714,0-8.534,3.821-8.534,8.534c0,4.713,3.82,8.534,8.534,8.534h10.532h0.464v50.885h-15.166c-4.714,0-8.534,3.821-8.534,8.534
		v19.566l-140,24.619c-4.08,0.718-7.056,4.262-7.056,8.405v199.997H8.534c-4.714,0-8.534,3.821-8.534,8.534
		c0,4.713,3.82,8.534,8.534,8.534h494.933c4.714,0,8.534-3.821,8.534-8.534C512,468.424,508.179,464.603,503.466,464.603z
		 M264.537,53.77l9.457,5.554l-9.457,4.746V53.77z M471.325,271.77v1.108H341.332V248.91L471.325,271.77z M276.478,464.6H235.52
		v-55.169h40.959V464.6z M255.999,108.08l36.533,27.449h-73.068L255.999,108.08z M211.433,152.596h89.132v50.885h-17.259v-34.915
		c0-4.713-3.82-8.534-8.534-8.534h-37.546c-4.714,0-8.534,3.821-8.534,8.534v34.915h-17.26V152.596z M266.239,203.481H245.76
		v-26.382h20.479V203.481z M187.733,220.549h136.532v244.052h-30.719v-63.703c0-4.713-3.82-8.534-8.534-8.534h-58.026
		c-4.714,0-8.534,3.821-8.534,8.534v63.703h-30.719V220.549z M170.666,248.909v23.968H40.68v-1.108L170.666,248.909z M40.68,289.946
		h129.986v174.657H40.68V289.946z M341.332,464.603V289.946h129.993v174.657H341.332z"/>
</g>
<g>
</g>
<g>
</g>
<g>
</g>
<g>
</g>
<g>
</g>
<g>
</g>
<g>
</g>
<g>
</g>
<g>
</g>
<g>
</g>
<g>
</g>
<g>
</g>
<g>
</g>
<g>
</g>
<g>
</g>
</svg>
