<svg height="512pt" viewBox="0 -39 512 512" width="512pt" xmlns="http://www.w3.org/2000/svg"><path d="m20.621094 230.964844h470.757812v177.847656h-470.757812zm0 0" fill="#f3e8d7"/><path d="m113.390625 230.964844h35.800781v177.847656h-35.800781zm0 0" fill="#ddd1c3"/><path d="m455.878906 230.964844h35.5v177.847656h-35.5zm0 0" fill="#ddd1c3"/><path d="m501.675781 230.964844h-491.351562c-1.558594 0-2.824219-1.265625-2.824219-2.824219v-17.785156c0-1.558594 1.265625-2.824219 2.824219-2.824219h491.351562c1.558594 0 2.824219 1.265625 2.824219 2.824219v17.785156c0 1.558594-1.265625 2.824219-2.824219 2.824219zm0 0" fill="#fc4e51"/><path d="m113.390625 207.53125h35.800781v23.433594h-35.800781zm0 0" fill="#ea3942"/><path d="m501.675781 207.53125h-32.023437v23.433594h32.023437c1.558594 0 2.824219-1.265625 2.824219-2.824219v-17.785156c0-1.558594-1.265625-2.824219-2.824219-2.824219zm0 0" fill="#ea3942"/><path d="m168.597656 156.621094h181.355469v252.191406h-181.355469zm0 0" fill="#f3e8d7"/><path d="m301.953125 156.621094h48v252.191406h-48zm0 0" fill="#ddd1c3"/><path d="m174.902344 408.8125h-25.710938v-252.191406h25.710938zm0 0" fill="#09627a"/><path d="m362.808594 408.8125h-25.710938v-252.191406h25.710938zm0 0" fill="#09627a"/><path d="m214.632812 299.546875h82.734376v109.265625h-82.734376zm0 0" fill="#464c50"/><path d="m262.535156 299.546875h34.832032v109.265625h-34.832032zm0 0" fill="#2a2f33"/><g fill="#33d8dd"><path d="m118.664062 298.570312h-68.65625c-2.105468 0-3.808593-1.703124-3.808593-3.804687v-25.089844c0-2.101562 1.703125-3.808593 3.808593-3.808593h68.65625c2.105469 0 3.808594 1.707031 3.808594 3.808593v25.089844c0 2.101563-1.703125 3.804687-3.808594 3.804687zm0 0"/><path d="m118.664062 368.90625h-68.65625c-2.105468 0-3.808593-1.707031-3.808593-3.808594v-25.085937c0-2.105469 1.703125-3.808594 3.808593-3.808594h68.65625c2.105469 0 3.808594 1.703125 3.808594 3.808594v25.085937c0 2.101563-1.703125 3.808594-3.808594 3.808594zm0 0"/><path d="m461.992188 298.570312h-68.65625c-2.105469 0-3.808594-1.703124-3.808594-3.804687v-25.089844c0-2.101562 1.703125-3.808593 3.808594-3.808593h68.65625c2.105468 0 3.808593 1.707031 3.808593 3.808593v25.089844c0 2.101563-1.703125 3.804687-3.808593 3.804687zm0 0"/></g><path d="m461.992188 265.867188h-31.191407v32.703124h31.191407c2.105468 0 3.808593-1.703124 3.808593-3.804687v-25.089844c0-2.101562-1.703125-3.808593-3.808593-3.808593zm0 0" fill="#25b9c0"/><path d="m461.992188 368.90625h-68.65625c-2.105469 0-3.808594-1.707031-3.808594-3.808594v-25.085937c0-2.105469 1.703125-3.808594 3.808594-3.808594h68.65625c2.105468 0 3.808593 1.703125 3.808593 3.808594v25.085937c0 2.101563-1.703125 3.808594-3.808593 3.808594zm0 0" fill="#33d8dd"/><path d="m461.992188 336.203125h-31.191407v32.703125h31.191407c2.105468 0 3.808593-1.707031 3.808593-3.808594v-25.085937c0-2.105469-1.703125-3.808594-3.808593-3.808594zm0 0" fill="#25b9c0"/><path d="m118.664062 265.867188h-31.191406v32.703124h31.191406c2.105469 0 3.808594-1.703124 3.808594-3.804687v-25.089844c0-2.101562-1.703125-3.808593-3.808594-3.808593zm0 0" fill="#25b9c0"/><path d="m118.664062 336.203125h-31.191406v32.703125h31.191406c2.105469 0 3.808594-1.707031 3.808594-3.808594v-25.085937c0-2.105469-1.703125-3.808594-3.808594-3.808594zm0 0" fill="#25b9c0"/><path d="m307.273438 249.03125h-102.546876c-1.109374 0-2.007812-.898438-2.007812-2.007812v-37.484376c0-1.109374.898438-2.007812 2.007812-2.007812h102.542969c1.109375 0 2.007813.898438 2.007813 2.007812v37.484376c0 1.109374-.894532 2.007812-2.003906 2.007812zm0 0" fill="#33d8dd"/><path d="m307.273438 207.53125h-32.867188v41.5h32.867188c1.109374 0 2.007812-.898438 2.007812-2.007812v-37.484376c-.003906-1.109374-.898438-2.007812-2.007812-2.007812zm0 0" fill="#25b9c0"/><path d="m501.675781 426.242188h-491.351562c-1.558594 0-2.824219-1.265626-2.824219-2.824219v-17.785157c0-1.558593 1.265625-2.820312 2.824219-2.820312h491.351562c1.558594 0 2.824219 1.261719 2.824219 2.820312v17.785157c0 1.558593-1.265625 2.824219-2.824219 2.824219zm0 0" fill="#fc4e51"/><path d="m501.675781 402.8125h-32.023437v23.429688h32.023437c1.558594 0 2.824219-1.265626 2.824219-2.824219v-17.785157c0-1.558593-1.265625-2.820312-2.824219-2.820312zm0 0" fill="#ea3942"/><path d="m309.675781 42.75h-53.675781v-35.25h53.496094c1.085937 0 1.746094 1.195312 1.164062 2.113281l-8.558594 13.535157c-.269531.421874-.285156.957031-.046874 1.398437l8.832031 16.164063c.5.917968-.164063 2.039062-1.210938 2.039062zm0 0" fill="#fd8f31"/><path d="m310.886719 40.710938-8.832031-16.164063c-.238282-.441406-.222657-.976563.046874-1.398437l8.558594-13.535157c.582032-.917969-.078125-2.113281-1.164062-2.113281h-33.164063v35.25h33.34375c1.046875 0 1.710938-1.121094 1.210938-2.039062zm0 0" fill="#ed7d2b"/><path d="m379.898438 144.832031-122.214844-70.25c-1.042969-.597656-2.324219-.597656-3.367188 0l-122.214844 70.25v21.925781c0 2.0625 1.671876 3.734376 3.734376 3.734376h240.328124c2.0625 0 3.734376-1.671876 3.734376-3.734376zm0 0" fill="#fc4e51"/><path d="m379.898438 144.832031-122.214844-70.25c-1.042969-.597656-2.324219-.597656-3.367188 0l-15.816406 9.09375 106.398438 61.15625v25.660157h31.265624c2.0625 0 3.734376-1.671876 3.734376-3.734376zm0 0" fill="#ea3942"/><path d="m376.164062 170.492188h-240.328124c-2.0625 0-3.734376-1.671876-3.734376-3.734376v-21.925781h247.796876v21.925781c0 2.0625-1.671876 3.734376-3.734376 3.734376zm0 0" fill="#0d6e9a"/><path d="m344.898438 144.832031v25.660157h31.265624c2.0625 0 3.734376-1.671876 3.734376-3.734376v-21.925781zm0 0" fill="#09627a"/><path d="m501.675781 238.464844c5.691407 0 10.324219-4.632813 10.324219-10.324219v-17.785156c0-5.691407-4.632812-10.324219-10.324219-10.324219h-131.367187v-22.039062h5.855468c1.9375 0 3.761719-.492188 5.351563-1.359376 3.503906-1.902343 5.882813-5.617187 5.882813-9.875v-21.925781c0-.3125-.023438-.617187-.058594-.921875-.011719-.070312-.023438-.136718-.035156-.207031-.035157-.242187-.082032-.484375-.144532-.71875-.015625-.0625-.027344-.125-.046875-.1875-.167969-.589844-.398437-1.148437-.695312-1.667969-.03125-.050781-.0625-.101562-.09375-.152344-.125-.207031-.257813-.40625-.398438-.601562-.046875-.058594-.089843-.117188-.136719-.175781-.367187-.46875-.785156-.890625-1.253906-1.257813-.058594-.042968-.117187-.085937-.175781-.128906-.203125-.152344-.414063-.289062-.628906-.421875-.035157-.019531-.0625-.042969-.09375-.0625l-120.136719-69.054687v-19.023438h46.175781c3.121094 0 6.046875-1.667969 7.636719-4.347656 1.59375-2.683594 1.652344-6.050782.15625-8.785156l-7.105469-13.003907 6.636719-10.492187c1.730469-2.734375 1.835938-6.191406.273438-9.027344-1.5625-2.832031-4.542969-4.59375-7.777344-4.59375h-53.496094c-4.144531 0-7.5 3.359375-7.5 7.5v61.773438l-120.136719 69.054687c-.035156.023437-.066406.050781-.105469.070313-.207031.125-.410156.261718-.609374.40625-.0625.046874-.125.09375-.1875.140624-.230469.183594-.457032.375-.664063.582032-.007813.007812-.011719.011718-.015625.019531-.203125.203125-.386719.421875-.566406.644531-.050782.0625-.097656.128906-.144532.195313-.136718.183593-.265624.375-.382812.574219-.035156.058593-.074219.113281-.109375.175781-.289063.515625-.519531 1.066406-.6875 1.648437-.019531.070313-.035156.144532-.054687.214844-.054688.222656-.101563.453125-.136719.683594-.011719.078125-.027344.160156-.035157.238281-.035156.300781-.0625.601563-.0625.910156v21.925781c0 6.195313 5.042969 11.234376 11.234376 11.234376h5.855468v22.039062h-131.367187c-5.691407 0-10.324219 4.632812-10.324219 10.324219v17.785156c0 5.691406 4.632812 10.324219 10.324219 10.324219h2.796875v156.847656h-2.796875c-5.691407 0-10.324219 4.628906-10.324219 10.320312v17.785157c0 5.691406 4.632812 10.324219 10.324219 10.324219h491.351562c5.691407 0 10.324219-4.632813 10.324219-10.324219v-17.785157c0-5.691406-4.632812-10.320312-10.324219-10.320312h-2.796875v-156.847656zm-238.175781-223.464844h34.882812l-2.621093 4.140625c-1.722657 2.726563-1.832031 6.175781-.289063 9l3.882813 7.109375h-35.855469zm-7.5 67.265625 95.800781 55.066406h-191.601562zm-116.398438 80.726563v-10.660157h232.796876v10.660157zm215.707032 15v217.320312h-10.710938v-217.320312zm-42.640625 114.054687h-113.335938c-4.140625 0-7.5 3.359375-7.5 7.5s3.359375 7.5 7.5 7.5h7.800781v88.265625h-24.730468v-217.320312h147.195312v217.320312h-24.726562v-88.265625h7.796875c4.144531 0 7.5-3.359375 7.5-7.5s-3.359375-7.5-7.5-7.5zm-22.800781 15v88.265625h-26.367188v-88.265625zm-41.367188 0v88.265625h-26.367188v-88.265625zm-81.097656-129.054687v217.320312h-10.710938v-217.320312zm-152.402344 37.039062h126.691406v8.433594h-69.195312c-4.144532 0-7.5 3.355468-7.5 7.5 0 4.140625 3.355468 7.5 7.5 7.5h69.195312v156.847656h-113.570312v-156.847656h9.710937c4.144531 0 7.5-3.359375 7.5-7.5 0-4.144532-3.355469-7.5-7.5-7.5h-22.832031zm482 203.710938h-482v-8.429688h482zm0-195.277344h-75.75c-4.144531 0-7.5 3.355468-7.5 7.5 0 4.140625 3.355469 7.5 7.5 7.5h62.628906v156.847656h-113.570312v-156.847656h16.230468c4.140626 0 7.5-3.359375 7.5-7.5 0-4.144532-3.359374-7.5-7.5-7.5h-16.230468v-8.433594h126.691406zm0 0"/><path d="m38.699219 269.675781v25.089844c0 6.234375 5.070312 11.304687 11.308593 11.304687h68.65625c6.234376 0 11.308594-5.070312 11.308594-11.304687v-25.089844c0-6.234375-5.070312-11.308593-11.308594-11.308593h-68.65625c-6.238281 0-11.308593 5.074218-11.308593 11.308593zm15 3.691407h61.273437v17.703124h-61.273437zm0 0"/><path d="m118.664062 328.703125h-68.65625c-6.234374 0-11.308593 5.074219-11.308593 11.308594v25.085937c0 6.234375 5.070312 11.308594 11.308593 11.308594h68.65625c6.234376 0 11.308594-5.074219 11.308594-11.308594v-25.085937c0-6.238281-5.074218-11.308594-11.308594-11.308594zm-3.691406 32.703125h-61.273437v-17.703125h61.273437zm0 0"/><path d="m382.027344 269.675781v25.089844c0 6.234375 5.070312 11.304687 11.308594 11.304687h68.65625c6.234374 0 11.308593-5.070312 11.308593-11.304687v-25.089844c0-6.234375-5.070312-11.308593-11.308593-11.308593h-68.65625c-6.234376 0-11.308594 5.074218-11.308594 11.308593zm15 3.691407h61.273437v17.703124h-61.273437zm0 0"/><path d="m461.992188 328.703125h-68.65625c-6.234376 0-11.308594 5.074219-11.308594 11.308594v25.085937c0 6.234375 5.070312 11.308594 11.308594 11.308594h68.65625c6.234374 0 11.308593-5.074219 11.308593-11.308594v-25.085937c0-6.238281-5.070312-11.308594-11.308593-11.308594zm-3.691407 32.703125h-61.273437v-17.703125h61.273437zm0 0"/><path d="m307.269531 200.03125h-102.539062c-5.242188 0-9.507813 4.265625-9.507813 9.507812v37.484376c0 5.242187 4.265625 9.507812 9.507813 9.507812h102.542969c5.242187 0 9.507812-4.265625 9.507812-9.507812v-37.484376c-.003906-5.242187-4.265625-9.507812-9.511719-9.507812zm-5.492187 41.5h-91.558594v-26.5h91.558594zm0 0"/></svg>